<svg width="20" height="20" viewBox="0 0 20 20" fill="none" xmlns="http://www.w3.org/2000/svg">
<path d="M18.3333 15.8333V18.3333H1.66662V15.8333C1.66662 15.375 2.04162 15 2.49995 15H17.5C17.9583 15 18.3333 15.375 18.3333 15.8333Z" fill="#0C923B" stroke="#0C923B" stroke-width="1.25625" stroke-miterlimit="10" stroke-linecap="round" stroke-linejoin="round"/>
<path d="M5.83331 9.16699H4.16664V15.0003H5.83331V9.16699Z" fill="#0C923B"/>
<path d="M9.16665 9.16699H7.49998V15.0003H9.16665V9.16699Z" fill="#0C923B"/>
<path d="M12.5 9.16699H10.8333V15.0003H12.5V9.16699Z" fill="#0C923B"/>
<path d="M15.8333 9.16699H14.1667V15.0003H15.8333V9.16699Z" fill="#0C923B"/>
<path d="M19.1667 18.958H0.833353C0.491686 18.958 0.208353 18.6747 0.208353 18.333C0.208353 17.9913 0.491686 17.708 0.833353 17.708H19.1667C19.5084 17.708 19.7917 17.9913 19.7917 18.333C19.7917 18.6747 19.5084 18.958 19.1667 18.958Z" fill="#0C923B"/>
<path d="M17.8083 4.79121L10.3083 1.79121C10.1416 1.72454 9.85828 1.72454 9.69162 1.79121L2.19162 4.79121C1.89995 4.90788 1.66662 5.24954 1.66662 5.56621V8.33288C1.66662 8.79121 2.04162 9.16621 2.49995 9.16621H17.5C17.9583 9.16621 18.3333 8.79121 18.3333 8.33288V5.56621C18.3333 5.24954 18.1 4.90788 17.8083 4.79121ZM9.99995 7.08288C9.30828 7.08288 8.74995 6.52454 8.74995 5.83288C8.74995 5.14121 9.30828 4.58288 9.99995 4.58288C10.6916 4.58288 11.25 5.14121 11.25 5.83288C11.25 6.52454 10.6916 7.08288 9.99995 7.08288Z" fill="#0C923B"/>
</svg>
