<svg width="24" height="24" viewBox="0 0 24 24" fill="none" xmlns="http://www.w3.org/2000/svg">
<path d="M15.3507 9.48696C14.7014 8.7287 14.4063 8.0716 14.4063 6.95525V6.57567C14.4063 5.12092 14.0715 4.18361 13.3435 3.2463C12.2216 1.79066 10.3328 0.91333 8.48378 0.91333H8.40516C6.59501 0.91333 4.76542 1.75037 3.62402 3.14693C2.85632 4.10304 2.48263 5.08063 2.48263 6.57567V6.95525C2.48263 8.0716 2.207 8.7287 1.53824 9.48696C1.04617 10.0456 0.888916 10.7636 0.888916 11.5406C0.888916 12.3186 1.14423 13.0554 1.65662 13.6543C2.32538 14.3722 3.26977 14.8306 4.23447 14.9103C5.63118 15.0696 7.02789 15.1296 8.44491 15.1296C9.86106 15.1296 11.2578 15.0293 12.6554 14.9103C13.6192 14.8306 14.5636 14.3722 15.2323 13.6543C15.7438 13.0554 16 12.3186 16 11.5406C16 10.7636 15.8428 10.0456 15.3507 9.48696Z" fill="#202520"/>
<path opacity="0.4" d="M10.2299 16.2274C9.78553 16.1325 7.07781 16.1325 6.63345 16.2274C6.25357 16.3152 5.84277 16.5193 5.84277 16.9669C5.86486 17.3939 6.11487 17.7708 6.46118 18.0098L6.46029 18.0107C6.90819 18.3599 7.43384 18.5819 7.98421 18.6616C8.27751 18.7018 8.57611 18.7001 8.88001 18.6616C9.42951 18.5819 9.95515 18.3599 10.4031 18.0107L10.4022 18.0098C10.7485 17.7708 10.9985 17.3939 11.0206 16.9669C11.0206 16.5193 10.6098 16.3152 10.2299 16.2274Z" fill="#2A2A32"/>
</svg>
