<svg width="24" height="24" viewBox="0 0 24 24" fill="none" xmlns="http://www.w3.org/2000/svg">
<path d="M18.47 16.33L18.86 19.49C18.96 20.32 18.07 20.9 17.36 20.47L13.17 17.98C12.71 17.98 12.26 17.95 11.82 17.89C12.56 17.02 13 15.92 13 14.73C13 11.89 10.54 9.59003 7.49997 9.59003C6.33997 9.59003 5.26997 9.92 4.37997 10.5C4.34997 10.25 4.33997 9.99999 4.33997 9.73999C4.33997 5.18999 8.28997 1.5 13.17 1.5C18.05 1.5 22 5.18999 22 9.73999C22 12.44 20.61 14.83 18.47 16.33Z" stroke="white" stroke-width="1.5" stroke-linecap="round" stroke-linejoin="round"/>
<path d="M13 14.73C13 15.92 12.56 17.0201 11.82 17.8901C10.83 19.0901 9.26 19.86 7.5 19.86L4.89 21.41C4.45 21.68 3.89 21.31 3.95 20.8L4.2 18.8301C2.86 17.9001 2 16.41 2 14.73C2 12.97 2.94 11.4201 4.38 10.5001C5.27 9.92006 6.34 9.59009 7.5 9.59009C10.54 9.59009 13 11.89 13 14.73Z" stroke="white" stroke-width="1.5" stroke-linecap="round" stroke-linejoin="round"/>
</svg>
