<svg width="24" height="24" viewBox="0 0 24 24" fill="none" xmlns="http://www.w3.org/2000/svg">
<path d="M18.47 16.33L18.86 19.49C18.96 20.32 18.07 20.9 17.36 20.47L13.9 18.41C13.66 18.27 13.6 17.97 13.73 17.73C14.23 16.81 14.5 15.77 14.5 14.73C14.5 11.07 11.36 8.09 7.5 8.09C6.71 8.09 5.94 8.21 5.22 8.45C4.85 8.57 4.49 8.23 4.58 7.85C5.49 4.21 8.99 1.5 13.17 1.5C18.05 1.5 22 5.19 22 9.74C22 12.44 20.61 14.83 18.47 16.33Z" fill="white"/>
<path d="M13 14.7298C13 15.9198 12.56 17.0198 11.82 17.8898C10.83 19.0898 9.26 19.8598 7.5 19.8598L4.89 21.4098C4.45 21.6798 3.89 21.3098 3.95 20.7998L4.2 18.8298C2.86 17.8998 2 16.4098 2 14.7298C2 12.9698 2.94 11.4198 4.38 10.4998C5.27 9.91984 6.34 9.58984 7.5 9.58984C10.54 9.58984 13 11.8898 13 14.7298Z" fill="white"/>
</svg>
