<svg width="25" height="24" viewBox="0 0 25 24" fill="none" xmlns="http://www.w3.org/2000/svg">
<path d="M16.69 1.5H8.31C4.67 1.5 2.5 3.67 2.5 7.31V15.68C2.5 19.33 4.67 21.5 8.31 21.5H16.68C20.32 21.5 22.49 19.33 22.49 15.69V7.31C22.5 3.67 20.33 1.5 16.69 1.5ZM8.13 17.65C8.13 18.06 7.79 18.4 7.38 18.4C6.97 18.4 6.63 18.06 6.63 17.65V15.58C6.63 15.17 6.97 14.83 7.38 14.83C7.79 14.83 8.13 15.17 8.13 15.58V17.65ZM13.25 17.65C13.25 18.06 12.91 18.4 12.5 18.4C12.09 18.4 11.75 18.06 11.75 17.65V13.5C11.75 13.09 12.09 12.75 12.5 12.75C12.91 12.75 13.25 13.09 13.25 13.5V17.65ZM18.37 17.65C18.37 18.06 18.03 18.4 17.62 18.4C17.21 18.4 16.87 18.06 16.87 17.65V11.43C16.87 11.02 17.21 10.68 17.62 10.68C18.03 10.68 18.37 11.02 18.37 11.43V17.65ZM18.37 8.27C18.37 8.68 18.03 9.02 17.62 9.02C17.21 9.02 16.87 8.68 16.87 8.27V7.3C14.32 9.92 11.13 11.77 7.56 12.66C7.5 12.68 7.44 12.68 7.38 12.68C7.04 12.68 6.74 12.45 6.65 12.11C6.55 11.71 6.79 11.3 7.2 11.2C10.57 10.36 13.57 8.59 15.95 6.09H14.7C14.29 6.09 13.95 5.75 13.95 5.34C13.95 4.93 14.29 4.59 14.7 4.59H17.63C17.67 4.59 17.7 4.61 17.74 4.61C17.79 4.62 17.84 4.62 17.89 4.64C17.94 4.66 17.98 4.69 18.03 4.72C18.06 4.74 18.09 4.75 18.12 4.77C18.13 4.78 18.13 4.79 18.14 4.79C18.18 4.83 18.21 4.87 18.24 4.91C18.27 4.95 18.3 4.98 18.31 5.02C18.33 5.06 18.33 5.1 18.34 5.15C18.35 5.2 18.37 5.25 18.37 5.31C18.37 5.32 18.38 5.33 18.38 5.34V8.27H18.37Z" fill="white"/>
</svg>
