<svg width="20" height="20" viewBox="0 0 20 20" fill="none" xmlns="http://www.w3.org/2000/svg">
<path d="M11.0334 1.66699C11.4334 1.66699 11.75 1.98366 11.75 2.38366V9.43366H8.6917L10 8.12533C10.2417 7.88366 10.2417 7.48366 10 7.24199C9.75837 7.00033 9.35837 7.00033 9.1167 7.24199L6.75003 9.61699C6.50837 9.85866 6.50837 10.2587 6.75003 10.5003L9.1167 12.8753C9.2417 13.0003 9.40003 13.0587 9.55837 13.0587C9.7167 13.0587 9.87503 13.0003 10 12.8753C10.2417 12.6337 10.2417 12.2337 10 11.992L8.70003 10.692H11.75V17.6337C11.75 18.0253 11.4334 18.3503 11.0334 18.3503C6.12503 18.3503 2.70003 14.9253 2.70003 10.017C2.70003 5.10866 6.13337 1.66699 11.0334 1.66699Z" fill="#0C923B"/>
<path d="M16.675 9.43359C17.0167 9.43359 17.3 9.71693 17.3 10.0586C17.3 10.4003 17.0167 10.6836 16.675 10.6836H11.7583V9.43359H16.675Z" fill="#0C923B"/>
</svg>
