<svg width="24" height="24" viewBox="0 0 24 24" fill="none" xmlns="http://www.w3.org/2000/svg">
<path d="M15 22H9C4 22 2 20 2 15V9C2 4 4 2 9 2H15C20 2 22 4 22 9V15C22 20 20 22 15 22Z" stroke="#2C2C30" stroke-width="1.5" stroke-linecap="round" stroke-linejoin="round"/>
<path d="M16.7116 10.5369V11.5312H6.5696V10.5369H16.7116ZM16.7116 12.6847V13.679H6.5696V12.6847H16.7116ZM15.7521 6.81818V17H14.3352L9.1598 9.53267H9.07031V17H7.52912V6.81818H8.95597L14.1314 14.2955H14.2259V6.81818H15.7521Z" fill="#2C2C30"/>
</svg>
