<svg width="24" height="24" viewBox="0 0 24 24" fill="none" xmlns="http://www.w3.org/2000/svg">
<path d="M12 1.5C9.38 1.5 7.25 3.63 7.25 6.25C7.25 8.82 9.26 10.9 11.88 10.99C11.96 10.98 12.04 10.98 12.1 10.99C12.12 10.99 12.13 10.99 12.15 10.99C12.16 10.99 12.16 10.99 12.17 10.99C14.73 10.9 16.74 8.82 16.75 6.25C16.75 3.63 14.62 1.5 12 1.5Z" fill="white"/>
<path d="M17.08 13.6499C14.29 11.7899 9.73999 11.7899 6.92999 13.6499C5.65999 14.4999 4.95999 15.6499 4.95999 16.8799C4.95999 18.1099 5.65999 19.2499 6.91999 20.0899C8.31999 21.0299 10.16 21.4999 12 21.4999C13.84 21.4999 15.68 21.0299 17.08 20.0899C18.34 19.2399 19.04 18.0999 19.04 16.8599C19.03 15.6299 18.34 14.4899 17.08 13.6499Z" fill="white"/>
</svg>
