<svg width="24" height="24" viewBox="0 0 24 24" fill="none" xmlns="http://www.w3.org/2000/svg">
<path d="M12.16 10.37C12.06 10.36 11.94 10.36 11.83 10.37C9.45 10.29 7.56 8.34 7.56 5.94C7.56 3.49 9.54 1.5 12 1.5C14.45 1.5 16.44 3.49 16.44 5.94C16.43 8.34 14.54 10.29 12.16 10.37Z" stroke="white" stroke-width="1.5" stroke-linecap="round" stroke-linejoin="round"/>
<path d="M7.15997 14.06C4.73997 15.68 4.73997 18.32 7.15997 19.93C9.90997 21.77 14.42 21.77 17.17 19.93C19.59 18.31 19.59 15.67 17.17 14.06C14.43 12.23 9.91997 12.23 7.15997 14.06Z" stroke="white" stroke-width="1.5" stroke-linecap="round" stroke-linejoin="round"/>
</svg>
