<svg width="27" height="32" viewBox="0 0 27 32" fill="none" xmlns="http://www.w3.org/2000/svg">
<g clip-path="url(#clip0_4557_66849)">
<path d="M19.4252 17.0328C21.0879 12.9657 20.902 8.32667 18.9047 4.04228C18.8691 3.98071 18.8204 3.92509 18.7617 3.87885C18.7029 3.83261 18.6354 3.79674 18.5632 3.77346C18.4384 3.72324 18.3017 3.71577 18.181 3.75255L18.1675 3.78725C13.832 5.58679 10.5537 8.8248 8.95585 12.8856C7.32133 13.099 5.88301 13.8324 4.89446 14.9566C3.9059 16.0808 3.43059 17.5235 3.55232 19.0305C4.68029 18.0497 6.16433 17.4468 7.79212 17.3081C7.72953 17.871 7.71255 18.4413 7.7413 19.0147C7.73195 19.1194 7.76295 19.2276 7.82928 19.3216C7.89561 19.4156 7.99338 19.4899 8.10672 19.5325L15.7267 22.4987C15.872 22.5552 16.0767 22.483 16.2331 22.3201C16.6327 21.942 16.9732 21.5162 17.2471 21.0524C18.3543 22.2586 19.0418 23.7093 19.212 25.198C20.3501 24.1899 20.9985 22.8083 21.0377 21.3078C21.0769 19.8073 20.5042 18.289 19.4252 17.0328ZM18.5379 20.1482L16.8363 18.287L15.6949 20.2404C15.5916 20.4128 15.4772 20.5791 15.3523 20.7384L9.4516 18.4416C9.46544 18.1672 9.47658 17.8998 9.50383 17.6626L9.74627 15.607L7.46312 15.7653C7.07743 15.8009 6.69632 15.8553 6.32143 15.9284C7.08095 15.1038 8.16234 14.5682 9.38448 14.4112L10.2892 14.2838L10.5864 13.5203C11.8883 10.196 14.4228 7.45955 17.8013 5.73077C19.1496 9.30318 19.1463 13.0571 17.792 16.3811L17.4813 17.1793L18.1264 17.9099C18.9354 18.8483 19.3652 19.9839 19.3361 21.1063C19.0935 20.7729 18.8268 20.4527 18.5379 20.1482Z" fill="white"/>
<path d="M15.791 10.8947C15.5077 10.7668 15.204 10.6897 14.8984 10.6682C14.5929 10.6467 14.2921 10.6813 14.0145 10.7698C13.7369 10.8583 13.4884 10.9988 13.2844 11.1828C13.0803 11.3668 12.925 11.5902 12.828 11.8394C12.731 12.0886 12.6944 12.3583 12.7204 12.6318C12.7463 12.9053 12.8344 13.1768 12.9791 13.4297C13.1238 13.6826 13.3221 13.9114 13.5618 14.1022C13.8014 14.2929 14.0774 14.4414 14.3726 14.5387L14.4695 14.5764C14.744 14.677 15.0326 14.73 15.3188 14.7324C15.6049 14.7348 15.883 14.6864 16.1371 14.5901C16.3913 14.4939 16.6165 14.3515 16.7999 14.1713C16.9833 13.991 17.1214 13.7764 17.2061 13.5396C17.2993 13.3002 17.3366 13.0418 17.3159 12.7791C17.2951 12.5165 17.2168 12.2548 17.0853 12.009C16.9538 11.7633 16.7718 11.5384 16.5497 11.3472C16.3276 11.156 16.0698 11.0022 15.791 10.8947ZM14.4062 23.3355C14.4003 23.3289 14.3927 23.3238 14.3842 23.3205C14.3757 23.3172 14.3666 23.3158 14.3578 23.3166C14.2232 23.26 14.0801 23.2269 13.9368 23.2192C13.7935 23.2115 13.6528 23.2294 13.523 23.2718C13.3931 23.3143 13.2767 23.3804 13.1805 23.4664C13.0843 23.5524 13.0102 23.6565 12.9626 23.7726L11.8819 26.5489C11.7881 26.7901 11.8094 27.0647 11.9414 27.3124C12.0733 27.5601 12.305 27.7606 12.5854 27.8698C12.8659 27.979 13.1721 27.9879 13.4368 27.8945C13.7015 27.8012 13.9029 27.6133 13.9968 27.3721L15.0613 24.6375C15.1111 24.5222 15.1336 24.3969 15.1276 24.2687C15.1215 24.1405 15.087 24.0121 15.026 23.8909C14.9651 23.7698 14.8789 23.6582 14.7725 23.5629C14.666 23.4675 14.5415 23.3902 14.4062 23.3355ZM8.49746 21.0355L8.44903 21.0166C8.17638 20.904 7.87584 20.8885 7.61297 20.9733C7.35009 21.0581 7.14621 21.2365 7.0458 21.4695L5.96511 24.2458C5.903 24.3673 5.87128 24.5018 5.87197 24.6405C5.87266 24.7793 5.90574 24.9194 5.9691 25.0519C6.03247 25.1844 6.12474 25.3064 6.24006 25.4102C6.35537 25.514 6.49121 25.5973 6.63894 25.6548C6.78668 25.7123 6.94308 25.7428 7.09822 25.7443C7.25336 25.7458 7.40384 25.7182 7.54012 25.6634C7.67639 25.6086 7.79547 25.5278 7.8898 25.426C7.98413 25.3242 8.05165 25.2037 8.08806 25.0722L9.15254 22.3375C9.20235 22.2222 9.22488 22.0969 9.21883 21.9687C9.21278 21.8405 9.17827 21.7121 9.1173 21.5909C9.05632 21.4698 8.97012 21.3582 8.8637 21.2629C8.75728 21.1675 8.63278 21.0902 8.49746 21.0355ZM11.3792 22.1572L11.3227 22.1352C11.1878 22.0784 11.0443 22.0451 10.9005 22.0371C10.7568 22.0292 10.6156 22.0468 10.4851 22.0889C10.3547 22.131 10.2375 22.1968 10.1404 22.2824C10.0433 22.3681 9.96823 22.472 9.91945 22.588L8.4335 26.4055C8.3714 26.527 8.33968 26.6615 8.34037 26.8002C8.34106 26.939 8.37413 27.0791 8.4375 27.2116C8.50087 27.3441 8.59314 27.4661 8.70845 27.5699C8.82377 27.6737 8.9596 27.757 9.10734 27.8145C9.25507 27.872 9.41148 27.9025 9.56662 27.904C9.72176 27.9055 9.87224 27.8779 10.0085 27.8231C10.1448 27.7683 10.2639 27.6875 10.3582 27.5857C10.4525 27.4839 10.52 27.3634 10.5565 27.2319L12.0262 23.4561C12.0758 23.3414 12.0984 23.2167 12.0926 23.0892C12.0869 22.9616 12.053 22.8338 11.9928 22.7131C11.9327 22.5923 11.8475 22.481 11.7422 22.3856C11.6368 22.2902 11.5135 22.2126 11.3792 22.1572Z" fill="white"/>
</g>
<defs>
<clipPath id="clip0_4557_66849">
<rect width="18.017" height="25.7481" fill="white" transform="translate(10.1521 0.498779) rotate(21.2686)"/>
</clipPath>
</defs>
</svg>
