<svg width="20" height="20" viewBox="0 0 20 20" fill="none" xmlns="http://www.w3.org/2000/svg">
<path d="M17.425 9.2666V5.60827C17.425 4.92494 16.9083 4.14994 16.2666 3.8916L11.625 1.9916C10.5833 1.5666 9.4083 1.5666 8.36663 1.9916L3.72496 3.8916C3.09163 4.14994 2.57496 4.92494 2.57496 5.60827V9.2666C2.57496 13.3416 5.5333 17.1583 9.57496 18.2749C9.84996 18.3499 10.15 18.3499 10.425 18.2749C14.4666 17.1583 17.425 13.3416 17.425 9.2666ZM10.625 10.7249V12.9166C10.625 13.2583 10.3416 13.5416 9.99996 13.5416C9.6583 13.5416 9.37496 13.2583 9.37496 12.9166V10.7249C8.5333 10.4583 7.91663 9.67494 7.91663 8.74994C7.91663 7.59994 8.84996 6.6666 9.99996 6.6666C11.15 6.6666 12.0833 7.59994 12.0833 8.74994C12.0833 9.68327 11.4666 10.4583 10.625 10.7249Z" fill="#0C923B"/>
</svg>
