<svg width="284" height="276" viewBox="0 0 284 276" fill="none" xmlns="http://www.w3.org/2000/svg">
<path d="M274.11 116.086L244.778 156.576C241.151 161.583 240.173 168.036 242.157 173.893L252.174 203.467C256.069 214.967 248.375 227.134 236.314 228.544L194.151 233.472C186.625 234.352 180.333 239.599 178.117 246.845L173.331 262.492C168.619 277.9 148.113 280.895 139.191 267.478L84.762 185.625C81.7324 181.069 76.8936 178.034 71.4729 177.287L17.195 169.817C1.68553 167.681 -4.79671 148.808 6.12884 137.594L28.1735 114.968C36.7247 106.19 34.9058 91.7436 24.4455 85.3612C11.0302 77.1742 12.7073 57.1889 27.2995 51.3523L45.1617 44.2088C52.4398 41.2983 57.1969 34.233 57.1584 26.3947L57.1295 20.5677C57.0442 3.39073 77.9215 -5.14605 89.8954 7.17043L112.647 30.5724C118.865 36.968 128.684 38.2027 136.292 33.5466L185.27 3.56986C198.553 -4.55938 215.456 5.7855 214.259 21.3118L210.857 65.4733C209.998 76.614 218.854 86.1053 230.027 86.0224L258.513 85.8084C274.158 85.6906 283.289 103.416 274.11 116.086Z" fill="#0C923B" fill-opacity="0.05"/>
<path d="M181.643 198.378C183.736 193.3 186.177 188.691 189.032 184.451C193.703 177.519 198.728 173.827 203.976 173.472C204.097 173.464 204.219 173.458 204.34 173.453C205.965 173.389 207.257 173.705 208.176 174.393C210.061 175.804 210.191 178.758 209.226 180.798C208.134 183.108 205.908 184.784 203.875 186.117C201.368 187.761 198.681 189.239 196.083 190.668C192.748 192.504 189.298 194.401 186.15 196.689C185.389 197.242 184.661 197.817 183.965 198.406C177.613 207.024 169.978 219.409 167.375 231.934C166.82 234.609 166.586 236.864 166.52 238.679C168.593 233.932 173.596 226.939 185.656 220.508C189.546 217.031 193.547 214.081 197.744 211.588C204.93 207.321 211.052 206.135 215.947 208.059C216.06 208.104 216.173 208.149 216.284 208.198C217.781 208.836 218.811 209.674 219.348 210.689C220.448 212.771 219.301 215.496 217.556 216.927C215.581 218.547 212.852 219.109 210.444 219.444C207.475 219.858 204.413 220.043 201.454 220.224C197.653 220.456 193.723 220.694 189.899 221.416C188.709 221.641 187.555 221.918 186.438 222.242C186.437 222.242 186.436 222.243 186.436 222.243C186.989 222.345 187.627 222.493 188.362 222.704C191.57 222.843 194.629 223.235 197.587 223.896C203.162 225.143 206.761 227.421 208.294 230.673C208.329 230.747 208.364 230.823 208.396 230.9C208.841 231.919 208.961 232.819 208.753 233.575C208.324 235.126 206.478 235.944 204.939 235.837C203.197 235.717 201.576 234.718 200.221 233.756C198.551 232.571 196.942 231.228 195.385 229.931C193.387 228.265 191.32 226.542 189.081 225.108C188.867 224.971 188.651 224.838 188.436 224.709C185.348 223.74 184.034 223.945 183.97 223.956C183.799 223.994 183.631 223.981 183.475 223.932C176.29 228.29 172.329 232.689 170.172 235.98C167.018 240.796 166.945 244.328 166.943 244.374C166.943 244.392 166.939 244.408 166.939 244.425C166.936 244.458 166.934 244.491 166.928 244.524C166.923 244.554 166.916 244.583 166.909 244.612C166.9 244.642 166.892 244.671 166.881 244.7C166.87 244.729 166.858 244.758 166.844 244.785C166.83 244.812 166.816 244.838 166.8 244.863C166.785 244.89 166.768 244.914 166.75 244.938C166.732 244.962 166.711 244.986 166.691 245.009C166.67 245.03 166.65 245.051 166.628 245.07C166.606 245.091 166.582 245.111 166.556 245.129C166.531 245.147 166.506 245.164 166.479 245.18C166.454 245.195 166.429 245.208 166.401 245.222C166.371 245.236 166.339 245.248 166.306 245.26C166.291 245.266 166.276 245.274 166.259 245.279C166.25 245.282 166.241 245.28 166.232 245.283C166.17 245.299 166.107 245.308 166.042 245.312C166.028 245.313 166.015 245.315 166.002 245.315C166 245.315 165.997 245.317 165.995 245.317C165.925 245.317 165.857 245.306 165.792 245.291C165.783 245.289 165.775 245.29 165.766 245.289C165.766 245.289 165.766 245.289 165.765 245.289C165.764 245.289 165.765 245.289 165.764 245.289C165.693 245.271 165.627 245.243 165.563 245.21C165.549 245.202 165.536 245.195 165.521 245.187C165.46 245.151 165.401 245.11 165.349 245.062C165.342 245.056 165.336 245.047 165.33 245.041C165.283 244.996 165.242 244.944 165.206 244.89C165.198 244.878 165.189 244.866 165.181 244.853C165.144 244.79 165.114 244.723 165.092 244.651C165.091 244.645 165.087 244.641 165.085 244.635C165.031 244.45 163.789 240.017 165.475 231.738C168.007 219.352 175.307 207.147 181.643 198.378Z" fill="#0C923B"/>
<path d="M203.071 181.204C204.177 181.204 205.075 180.306 205.075 179.199C205.075 178.093 204.177 177.195 203.071 177.195C201.964 177.195 201.067 178.093 201.067 179.199C201.067 180.306 201.964 181.204 203.071 181.204Z" fill="white"/>
<path d="M211.435 215.905C212.541 215.905 213.439 215.008 213.439 213.901C213.439 212.794 212.541 211.897 211.435 211.897C210.328 211.897 209.431 212.794 209.431 213.901C209.431 215.008 210.328 215.905 211.435 215.905Z" fill="white"/>
<path d="M204.251 232.969C205.174 232.969 205.921 232.221 205.921 231.299C205.921 230.377 205.174 229.629 204.251 229.629C203.329 229.629 202.581 230.377 202.581 231.299C202.581 232.221 203.329 232.969 204.251 232.969Z" fill="white"/>
<path d="M73.7875 205.984C78.1875 212.606 81.8674 219.705 84.6192 227.272C86.015 231.109 87.1823 235.323 85.9705 239.223C84.6469 243.481 80.6736 246.479 76.4431 247.891C66.109 251.338 54.4465 246.544 46.815 238.768C39.1835 230.993 34.7654 220.702 30.6106 210.63C27.3395 202.701 24.0815 194.644 19.1778 187.552C17.0751 184.512 5.8214 173.281 9.64918 169.284C14.8571 163.643 32.9309 165.966 45.9266 176.259C56.6309 184.738 66.2629 194.662 73.7875 205.984Z" fill="#0C923B"/>
<path d="M24.5078 176.8C24.8649 176.377 25.4972 176.325 25.9192 176.682C44.094 192.048 57.1113 210.482 64.8318 223.241C64.8739 223.311 64.9148 223.379 64.9569 223.449C63.5383 214.947 59.214 197.32 46.8061 185.806C46.4226 185.45 46.3998 184.851 46.7556 184.468C47.1115 184.084 47.7102 184.063 48.0937 184.417C57.1642 192.835 61.955 204.305 64.3762 212.445C66.5918 219.893 67.2735 225.851 67.443 227.675C74.0575 239.222 77.3359 247.429 77.3731 247.522C77.5763 248.036 77.325 248.618 76.8105 248.822C76.8057 248.824 76.8009 248.826 76.7961 248.827C76.2851 249.021 75.7117 248.768 75.5097 248.26C75.4388 248.082 72.2494 240.158 65.7828 228.866C65.7443 228.813 65.7118 228.757 65.6854 228.696C63.3014 224.543 60.4763 219.94 57.2027 215.101C54.6853 215.649 46.8903 216.066 37.3497 204.049C37.0239 203.639 37.0924 203.044 37.5023 202.719C37.9123 202.394 38.5074 202.462 38.832 202.872C46.7905 212.896 53.316 213.602 56.0101 213.355C48.066 201.861 37.6406 189.215 24.6268 178.214C24.2037 177.854 24.1508 177.223 24.5078 176.8Z" fill="white"/>
<path d="M151.735 14.256C147.296 15.2094 143.284 17.2062 139.937 19.9568L131.987 13.3303L126.067 19.5433L133.463 27.5956C131.431 31.1156 130.153 35.1045 129.826 39.3254L118.213 41.0962L118.94 49.6438L130.884 49.4274C132.05 53.385 134.062 56.9496 136.693 59.9346L130.338 69.7794L137.221 74.9019L144.649 66.198C148.158 68.047 152.094 69.1638 156.237 69.3658L158.441 80.7013L166.954 79.629L166.27 68.0314C169.392 67.0167 172.256 65.4707 174.769 63.5099L183.448 71.0248L189.48 64.9261L181.509 55.9097C183.547 52.5327 184.886 48.7037 185.339 44.6379L195.454 43.0402L194.683 34.4974L184.675 34.7318C183.616 30.4856 181.598 26.6543 178.877 23.4576L185.297 13.9134L178.511 8.66221L171.054 17.074C168.274 15.5436 165.214 14.4772 161.988 13.9687L159.314 1.5957L150.824 2.84719L151.735 14.256ZM156.143 24.0755C165.773 23.2568 174.245 30.4003 175.06 40.0299C175.879 49.6594 168.735 58.1301 159.107 58.9512C149.476 59.7687 141.005 52.6241 140.188 42.9945C139.37 33.3661 146.514 24.8942 156.143 24.0755Z" fill="#0C923B"/>
<path d="M72.0993 93.4458C72.0789 85.6532 77.5597 76.1739 84.3329 72.2655L142.764 38.5464C146.174 36.5784 149.265 36.3956 151.496 37.6928L156.718 40.7404C156.724 40.744 156.73 40.7476 156.736 40.7512L156.77 40.7704V40.7716C158.971 42.052 160.337 44.7701 160.348 48.6412L160.286 203.877C160.307 211.659 154.826 221.149 148.053 225.058L89.6225 258.778C86.2131 260.744 83.1246 260.925 80.8934 259.626V259.628L75.6181 256.551C73.4157 255.271 72.05 252.548 72.0392 248.682L72.0993 93.4458Z" fill="#0C923B"/>
<path d="M86.6693 258.388L102.126 249.467L138.158 228.676L147.701 223.167C154.504 219.241 158.695 211.982 158.696 204.128L158.719 47.5303C158.719 43.2998 154.141 40.6562 150.477 42.7696L137.998 49.9708C137.87 50.0453 137.753 50.1403 137.654 50.2509L128.621 60.4359C128.523 60.5477 128.406 60.6415 128.277 60.716L109.969 71.2797C109.702 71.4336 109.391 71.4937 109.085 71.4516L102.875 70.58C102.57 70.5367 102.258 70.598 101.991 70.7519L90.657 77.2931C83.76 81.2735 79.5115 88.631 79.5103 96.5931L79.4874 254.24C79.485 257.926 83.4763 260.231 86.6693 258.388Z" fill="white"/>
<path d="M127.206 59.307L115.033 66.3338C114.362 66.7209 113.818 66.4913 113.818 65.8205C113.818 65.1497 114.362 64.2925 115.033 63.9054L127.206 56.8786C127.877 56.4914 128.42 56.7211 128.42 57.3919C128.42 58.0627 127.877 58.9199 127.206 59.307Z" fill="white"/>
<path d="M75.0047 121.765C75.2427 122.036 75.4459 122.356 75.5937 122.692C75.7621 123.071 75.8582 123.471 75.8582 123.837L75.857 136.74C75.8558 137.224 75.6863 137.563 75.4146 137.721L74.311 138.361C74.5839 138.202 74.7534 137.863 74.7546 137.38L74.7558 124.477C74.757 124.11 74.6596 123.711 74.4913 123.331C74.3435 122.997 74.1403 122.676 73.9023 122.404C73.7015 122.176 73.4755 121.981 73.235 121.843L72.8155 121.601C72.3935 121.357 72.01 121.335 71.7311 121.498L72.8335 120.857C73.1112 120.695 73.4959 120.718 73.9179 120.96L74.3375 121.202C74.5767 121.343 74.8039 121.536 75.0047 121.765Z" fill="white"/>
<path d="M74.7922 124.49L74.6984 137.393C74.6888 138.367 74.0048 138.749 73.162 138.254L72.7449 138.009C71.9094 137.518 71.2337 136.338 71.2433 135.364L71.3371 122.461C71.3467 121.498 72.038 121.111 72.8735 121.6L73.2907 121.845C74.1346 122.342 74.8018 123.527 74.7922 124.49Z" fill="#0C923B"/>
<path d="M110.186 66.1956C109.363 66.6704 108.698 67.8233 108.7 68.7695C108.703 69.7156 109.372 70.0979 110.196 69.623C111.019 69.1482 111.685 67.9953 111.683 67.0491C111.679 66.103 111.01 65.7207 110.186 66.1956Z" fill="white"/>
<path d="M127.082 226.972C127.226 226.943 127.362 226.929 127.483 226.929C127.72 226.929 127.904 226.983 127.995 227.085C128.131 227.238 128.131 227.584 127.996 227.987C127.585 229.222 126.101 230.531 124.818 230.789C124.393 230.875 124.044 230.831 123.907 230.675C123.772 230.522 123.771 230.176 123.905 229.773C124.321 228.519 125.777 227.237 127.082 226.972Z" fill="white"/>
<path d="M122.486 231.931C122.945 232.451 123.63 232.726 124.426 232.726C124.671 232.726 124.927 232.699 125.191 232.646C127.144 232.252 129.165 230.469 129.791 228.587C130.148 227.514 130.01 226.51 129.411 225.832C128.81 225.152 127.823 224.891 126.707 225.117C124.754 225.511 122.735 227.294 122.107 229.177C121.749 230.249 121.887 231.253 122.486 231.931ZM123.902 229.776C124.32 228.519 125.775 227.237 127.079 226.973C127.224 226.944 127.359 226.93 127.481 226.93C127.718 226.93 127.902 226.984 127.993 227.086C128.129 227.239 128.129 227.585 127.994 227.988C127.583 229.223 126.098 230.532 124.816 230.79C124.391 230.876 124.041 230.832 123.904 230.676C123.768 230.523 123.768 230.178 123.902 229.776Z" fill="#0C923B"/>
<path d="M40.0349 151.355C39.3352 151.355 38.7654 151.158 38.3326 150.764C37.6161 150.112 37.4309 149.076 37.782 147.685C38.4444 145.06 40.8668 142.674 44.4289 141.142C47.1339 139.977 50.1441 139.465 52.7998 139.681C56.2008 135.353 59.1077 129.879 60.0142 123.853C60.7559 118.929 59.4672 115.756 56.184 114.419C48.2723 125.83 37.9118 131.005 32.2831 131.005C32.2615 131.005 32.2399 131.005 32.2182 131.005C30.237 130.99 28.798 130.309 28.1668 129.085C27.6535 128.089 27.4611 126.305 29.458 123.451C34.3521 116.459 47.2541 110.218 55.4001 112.188C56.214 110.946 56.9967 109.632 57.7372 108.246C60.3688 103.322 60.7018 99.1537 58.7254 95.8573C53.0426 86.372 30.4606 86.2554 30.2322 86.2554C29.7092 86.2554 29.2861 85.831 29.2861 85.3093C29.2861 84.7863 29.7104 84.3631 30.2322 84.3631C31.2048 84.3631 54.1138 84.4833 60.3484 94.8835C62.6902 98.7907 62.3741 103.587 59.4059 109.139C58.7182 110.427 57.9969 111.653 57.2503 112.82C60.049 114.095 62.9463 117.095 61.886 124.137C60.9867 130.111 58.2037 135.581 54.8676 140.021C57.3621 140.666 62.2599 142.922 60.6982 150.596C60.5936 151.108 60.0935 151.438 59.5814 151.334C59.0692 151.229 58.7386 150.73 58.842 150.217C60.0238 144.408 56.9486 142.43 54.1595 141.796C53.9611 141.751 53.7603 141.711 53.5584 141.677C49.531 146.533 44.9831 149.902 42.0173 150.955C41.272 151.223 40.6095 151.355 40.0349 151.355ZM51.2706 141.517C46.1156 141.609 40.5218 144.567 39.6177 148.148C39.4194 148.937 39.5228 149.288 39.6069 149.363C39.7271 149.473 40.2537 149.575 41.385 149.173C43.9348 148.267 47.7398 145.514 51.2706 141.517ZM52.1254 113.727C45.1094 113.727 35.261 118.463 31.0088 124.538C29.8896 126.136 29.4676 127.477 29.8487 128.218C30.1384 128.778 31.0064 129.105 32.2314 129.114C32.2495 129.114 32.2675 129.114 32.2855 129.114C37.247 129.114 46.8045 124.258 54.234 113.888C53.5692 113.778 52.8635 113.727 52.1254 113.727Z" fill="#0C923B"/>
<path d="M249.209 48.1941L243.1 48.3371C242.634 48.354 242.218 48.033 242.105 47.5774C241.417 44.8207 240.078 42.2168 238.233 40.0492C237.942 39.7066 237.914 39.2137 238.164 38.841L242.16 32.901L238.866 30.3523L234.239 35.5722C233.928 35.9233 233.415 36.011 233.006 35.785C231.116 34.7439 229.078 34.0467 226.951 33.7113C226.543 33.6463 226.216 33.3374 226.128 32.9334L224.444 25.1408L220.321 25.7491L220.889 32.8457C220.928 33.347 220.592 33.799 220.1 33.9048C217.224 34.5227 214.5 35.8391 212.221 37.7122C211.849 38.0175 211.313 38.0163 210.943 37.7073L206.067 33.6427L203.193 36.659L207.765 41.6361C208.061 41.9583 208.114 42.4356 207.895 42.8143C206.498 45.2331 205.682 47.8683 205.467 50.6478C205.431 51.1118 205.08 51.4905 204.619 51.5614L197.371 52.6675L197.724 56.8162L205.194 56.6804C205.652 56.6635 206.046 56.9665 206.174 57.3993C206.942 60.0069 208.248 62.3668 210.053 64.4165C210.35 64.7531 210.386 65.246 210.143 65.6223L206.179 71.7643L209.519 74.2505L214.139 68.837C214.335 68.6074 214.617 68.4859 214.902 68.4859C215.06 68.4859 215.22 68.5232 215.368 68.6013C217.78 69.8721 220.384 70.5838 223.107 70.7172C223.567 70.74 223.953 71.0731 224.041 71.5263L225.412 78.5856L229.544 78.065L229.118 70.8374C229.091 70.3818 229.375 69.9658 229.809 69.8252C231.863 69.158 233.773 68.1421 235.484 66.8053C235.861 66.5107 236.395 66.5239 236.756 66.8377L242.157 71.5131L245.085 68.5521L240.095 62.9077C239.805 62.5795 239.761 62.1011 239.988 61.726C241.387 59.4094 242.248 56.8775 242.546 54.199C242.597 53.7506 242.939 53.3912 243.385 53.3202L249.579 52.3417L249.209 48.1941ZM225.167 65.3819C224.786 65.4143 224.406 65.43 224.031 65.43C217.191 65.43 211.356 60.174 210.767 53.2373C210.466 49.6932 211.563 46.2429 213.857 43.5224C216.151 40.8018 219.367 39.138 222.911 38.8362C226.457 38.5357 229.906 39.6321 232.626 41.9258C235.345 44.2196 237.009 47.4355 237.309 50.9808C237.932 58.2985 232.485 64.7591 225.167 65.3819Z" fill="white"/>
<path d="M251.122 47.0797C251.075 46.5543 250.621 46.1443 250.1 46.1684L243.84 46.3151C243.103 43.7941 241.874 41.4089 240.245 39.3411L244.348 33.2412C244.642 32.8036 244.546 32.2121 244.13 31.8899L239.355 28.1932C238.938 27.871 238.342 27.9263 237.992 28.3206L233.264 33.6548C231.578 32.8096 229.796 32.2049 227.947 31.8503L226.207 23.8004C226.095 23.2846 225.601 22.9444 225.081 23.0213L219.105 23.9025C218.584 23.9795 218.211 24.4483 218.253 24.9737L218.828 32.1484C216.226 32.8276 213.758 34.0226 211.608 35.6468L206.636 31.5016C206.231 31.1638 205.633 31.1987 205.269 31.5798L201.102 35.9533C200.738 36.3356 200.733 36.9331 201.089 37.3226L205.807 42.4584C204.602 44.7246 203.846 47.153 203.551 49.6968L196.147 50.8257C195.625 50.905 195.255 51.3751 195.299 51.9005L195.812 57.9174C195.856 58.4368 196.29 58.8347 196.809 58.8347C196.815 58.8347 196.821 58.8347 196.827 58.8347L204.485 58.6953C205.276 61.0564 206.476 63.2251 208.06 65.1583L203.99 71.4626C203.704 71.9062 203.811 72.4952 204.234 72.809L209.079 76.4144C209.502 76.7294 210.097 76.6621 210.439 76.2617L215.157 70.7328C217.39 71.8016 219.76 72.4484 222.225 72.6624L223.629 79.8851C223.722 80.3612 224.139 80.6954 224.611 80.6954C224.653 80.6954 224.695 80.693 224.738 80.687L230.729 79.9332C231.252 79.8671 231.636 79.4067 231.604 78.8801L231.168 71.4746C232.909 70.835 234.549 69.9646 236.06 68.8791L241.559 73.6397C241.958 73.986 242.556 73.9619 242.927 73.5868L247.173 69.2938C247.543 68.9187 247.56 68.3212 247.211 67.9257L242.079 62.1203C243.286 59.954 244.078 57.6253 244.443 55.1812L250.823 54.1738C251.343 54.0921 251.711 53.6196 251.664 53.0942L251.122 47.0797ZM242.55 54.1978C242.252 56.8763 241.392 59.4082 239.992 61.7248C239.766 62.0999 239.809 62.5783 240.099 62.9065L245.09 68.5508L242.161 71.5119L236.761 66.8365C236.399 66.5227 235.865 66.5095 235.489 66.8041C233.777 68.1397 231.868 69.1556 229.813 69.824C229.379 69.9646 229.096 70.3806 229.122 70.8362L229.549 78.0638L225.417 78.5844L224.045 71.5251C223.957 71.0718 223.571 70.7376 223.111 70.716C220.388 70.5826 217.784 69.8709 215.372 68.6001C215.225 68.522 215.065 68.4847 214.906 68.4847C214.62 68.4847 214.34 68.6073 214.144 68.8358L209.524 74.2493L206.183 71.7631L210.148 65.6211C210.391 65.2448 210.354 64.7519 210.058 64.4153C208.251 62.3656 206.946 60.0045 206.178 57.3981C206.051 56.9653 205.658 56.6623 205.198 56.6792L197.728 56.815L197.376 52.6663L204.624 51.5602C205.084 51.4893 205.435 51.1118 205.471 50.6466C205.686 47.8683 206.504 45.2331 207.9 42.8131C208.118 42.4344 208.066 41.9571 207.77 41.6349L203.198 36.6578L206.071 33.6415L210.947 37.7061C211.317 38.0139 211.854 38.0163 212.225 37.711C214.503 35.8379 217.227 34.5215 220.104 33.9036C220.596 33.7978 220.933 33.3458 220.893 32.8445L220.325 25.7479L224.448 25.1396L226.132 32.9322C226.22 33.3362 226.547 33.6463 226.956 33.71C229.082 34.0455 231.12 34.7427 233.01 35.7838C233.42 36.0098 233.932 35.9221 234.243 35.571L238.871 30.3511L242.165 32.8998L238.168 38.8398C237.917 39.2125 237.946 39.7066 238.237 40.048C240.082 42.2168 241.422 44.8207 242.109 47.5762C242.222 48.0306 242.638 48.3528 243.105 48.336L249.213 48.1929L249.587 52.3393L243.393 53.3178C242.944 53.3888 242.6 53.7494 242.55 54.1978Z" fill="#0C923B"/>
<path d="M232.628 41.9259C229.909 39.6321 226.458 38.5357 222.913 38.8363C219.368 39.138 216.152 40.8019 213.859 43.5224C211.566 46.243 210.468 49.6921 210.77 53.2374C211.359 60.174 217.193 65.4312 224.034 65.43C224.409 65.43 224.789 65.4144 225.17 65.3819C232.486 64.7592 237.933 58.2986 237.312 50.9809C237.011 47.4356 235.347 44.2197 232.628 41.9259ZM212.765 53.0679C212.509 50.0564 213.441 47.1254 215.39 44.8148C217.339 42.5042 220.07 41.0904 223.081 40.8343C226.093 40.5795 229.025 41.51 231.336 43.4587C233.646 45.4075 235.059 48.1389 235.314 51.1516C235.843 57.3681 231.214 62.8573 224.999 63.3863C218.78 63.9129 213.293 59.2844 212.765 53.0679Z" fill="#0C923B"/>
<path d="M74.788 86.2867L80.0837 63.0723C78.6603 62.8102 77.2117 62.678 75.7654 62.678C69.4443 62.678 63.4718 65.169 58.9491 69.6928C54.4265 74.2155 51.9343 80.188 51.9343 86.5091C51.9343 92.8303 54.4253 98.8028 58.9491 103.325C63.473 107.848 69.4443 110.34 75.7654 110.34C82.4376 110.34 88.7599 107.563 93.2646 102.686L75.1162 87.2725C74.8313 87.0321 74.7039 86.651 74.788 86.2867Z" fill="white"/>
<path d="M95.3421 101.821L76.8776 86.1388L82.2658 62.5205C82.3247 62.262 82.279 61.9891 82.1372 61.7643C81.9953 61.5395 81.7705 61.3796 81.512 61.3207C79.6294 60.8915 77.6963 60.674 75.7667 60.674C68.9106 60.674 62.4344 63.3741 57.5331 68.2754C52.6317 73.1768 49.9316 79.653 49.9316 86.5091C49.9316 93.3652 52.6317 99.8414 57.5331 104.743C62.4344 109.644 68.9106 112.344 75.7667 112.344C83.3634 112.344 90.5405 109.024 95.4575 103.234C95.8145 102.812 95.7628 102.18 95.3421 101.821ZM75.7655 110.341C69.4444 110.341 63.4719 107.85 58.9492 103.327C54.4266 98.8039 51.9344 92.8314 51.9344 86.5103C51.9344 80.1892 54.4254 74.2167 58.9492 69.694C63.4731 65.1714 69.4444 62.6792 75.7655 62.6792C77.2118 62.6792 78.6604 62.8114 80.0838 63.0735L74.7882 86.2879C74.7052 86.6522 74.8314 87.0321 75.1164 87.2737L93.2647 102.687C88.7601 107.563 82.4377 110.341 75.7655 110.341Z" fill="#0C923B"/>
<path d="M87.2893 63.5135L79.1937 84.1239L101.194 81.6065C100.576 77.6741 98.9806 73.9533 96.5486 70.788C94.1154 67.6238 90.9295 65.1232 87.2893 63.5135Z" fill="white"/>
<path d="M103.32 82.3712C102.787 77.7126 100.995 73.285 98.1372 69.5666C95.2796 65.8482 91.4627 62.9773 87.0975 61.263C86.851 61.1656 86.5745 61.1704 86.3305 61.2774C86.0865 61.3832 85.8953 61.5816 85.7979 61.8293L76.719 84.9426C76.5903 85.2696 76.6432 85.6411 76.8572 85.9188C77.0484 86.1665 77.3429 86.3107 77.6519 86.3107C77.6891 86.3107 77.7276 86.3083 77.7661 86.3047L102.437 83.4808C102.988 83.4171 103.382 82.9206 103.32 82.3712ZM79.1943 84.1239L87.2898 63.5135C90.9301 65.1233 94.1159 67.6238 96.5479 70.788C98.98 73.9534 100.575 77.6742 101.193 81.6066L79.1943 84.1239Z" fill="#0C923B"/>
<path d="M102.601 86.7149L82.0278 87.6983L99.5161 98.5793C101.537 95.0052 102.601 90.9706 102.601 86.8519C102.601 86.805 102.601 86.7594 102.601 86.7149Z" fill="white"/>
<path d="M104.575 85.6172C104.549 85.0642 104.073 84.623 103.527 84.665L78.7219 85.8504C78.2843 85.8708 77.9104 86.175 77.7998 86.5994C77.6892 87.0238 77.8684 87.471 78.2398 87.7018L99.3251 100.82C99.4898 100.922 99.6726 100.972 99.8529 100.972C100.187 100.972 100.515 100.805 100.704 100.499C103.255 96.3997 104.603 91.6799 104.603 86.8506C104.605 86.4383 104.596 86.0235 104.575 85.6172ZM82.028 87.6982L102.601 86.7148C102.601 86.7605 102.601 86.805 102.601 86.8506C102.601 90.9706 101.537 95.0039 99.5163 98.578L82.028 87.6982Z" fill="#0C923B"/>
<path d="M260.2 240.372C259.937 240.372 259.677 240.264 259.49 240.052C259.144 239.66 259.18 239.062 259.572 238.715C259.635 238.66 265.873 233.122 271.602 226.184C279.031 217.188 282.259 209.965 280.936 205.293C279.995 201.967 276.632 199.779 270.942 198.788C264.953 197.745 259.655 198.583 255.127 200.56C252.264 211.476 246.443 222.409 240.72 226.413C238.51 227.959 237.186 227.561 236.463 226.957C234.279 225.125 235.686 219.78 237.554 215.758C240.5 209.417 245.933 202.817 253.503 199.209C254.338 195.863 254.875 192.551 255.017 189.502C255.284 183.756 254.114 179.607 251.634 177.503C251.235 177.165 251.185 176.568 251.525 176.169C251.862 175.77 252.461 175.722 252.859 176.059C255.804 178.556 257.204 183.235 256.909 189.59C256.78 192.353 256.351 195.296 255.684 198.277C260.219 196.558 265.434 195.908 271.268 196.922C277.736 198.049 281.602 200.691 282.759 204.777C286.332 217.403 261.871 239.212 260.827 240.134C260.647 240.294 260.423 240.372 260.2 240.372ZM252.832 201.694C246.467 205.211 241.859 210.99 239.272 216.555C236.841 221.785 237.036 224.965 237.68 225.506C237.966 225.745 238.733 225.492 239.635 224.861C244.678 221.334 249.946 211.616 252.832 201.694Z" fill="#0C923B"/>
<path d="M149.983 211.743C147.02 209.196 146.777 208.99 146.843 208.29C146.872 207.979 147.059 207.676 147.325 207.509C148.309 206.778 154.759 199.644 155.287 195.274C155.389 194.424 155.252 193.789 154.869 193.335C154.372 192.747 154.03 192.725 153.918 192.719C153.021 192.663 151.652 193.938 150.198 195.287C147.953 197.37 145.159 199.964 141.391 200.537C136.966 201.212 135.318 199.277 133.231 196.831C131.451 194.745 129.238 192.148 124.295 189.928C120.547 188.243 117.531 187.892 115.331 188.883C113.35 189.775 112.698 191.488 112.609 191.749C111.768 195.692 113.114 198.119 114.417 200.467C115.9 203.139 117.434 205.901 115.258 210.222C112.101 216.493 103.426 247.377 107.844 257.043C108.47 258.412 109.303 259.211 110.394 259.485C119.392 261.753 155.685 262.531 169.262 253.6C172.104 251.73 173.745 249.542 174.14 247.097C176.211 234.269 157.157 217.904 149.983 211.743Z" fill="white"/>
<path d="M151.288 210.222C150.498 209.544 149.737 208.89 149.242 208.44C151.398 206.296 156.443 200.334 157.217 195.901C157.495 194.312 157.22 193.014 156.399 192.04C155.703 191.215 154.908 190.769 154.038 190.716C152.293 190.608 150.687 192.095 148.833 193.816C146.683 195.811 144.244 198.073 141.086 198.554C137.765 199.06 136.695 197.805 134.752 195.528C132.944 193.407 130.466 190.502 125.113 188.097C120.794 186.156 117.211 185.811 114.459 187.074C111.533 188.415 110.71 191.087 110.677 191.2C110.67 191.224 110.664 191.248 110.659 191.272C109.636 195.981 111.244 198.879 112.663 201.435C114.061 203.954 115.165 205.942 113.465 209.317C110.459 215.286 101.158 247.238 106.018 257.871C106.901 259.802 108.208 260.997 109.901 261.423C113.266 262.271 120.624 262.957 129.376 262.957C132.171 262.957 135.109 262.888 138.104 262.73C156.889 261.743 166.014 258.128 170.36 255.268C173.69 253.078 175.627 250.434 176.116 247.412C178.368 233.481 158.694 216.584 151.288 210.222ZM174.137 247.095C173.742 249.54 172.101 251.728 169.259 253.597C155.682 262.527 119.389 261.75 110.391 259.483C109.3 259.209 108.466 258.41 107.841 257.04C103.423 247.375 112.098 216.49 115.255 210.22C117.431 205.899 115.897 203.136 114.414 200.465C113.111 198.117 111.765 195.69 112.606 191.747C112.695 191.486 113.347 189.773 115.328 188.881C117.528 187.89 120.544 188.241 124.292 189.925C129.235 192.147 131.45 194.743 133.228 196.828C135.315 199.276 136.963 201.209 141.388 200.535C145.156 199.961 147.95 197.368 150.195 195.285C151.649 193.936 153.018 192.66 153.915 192.717C154.028 192.724 154.369 192.745 154.866 193.332C155.249 193.787 155.386 194.422 155.284 195.272C154.758 199.64 148.307 206.775 147.322 207.506C147.056 207.673 146.869 207.976 146.84 208.288C146.775 208.987 147.017 209.195 149.98 211.74C157.156 217.904 176.211 234.27 174.137 247.095Z" fill="#0C923B"/>
<path d="M135.96 211.034C133.028 211.034 129.819 210.815 126.346 210.377C119.534 209.518 114.169 208.085 114.115 208.07C113.61 207.934 113.311 207.415 113.448 206.91C113.583 206.405 114.104 206.107 114.608 206.242C114.816 206.297 135.575 211.797 147.536 207.467C148.028 207.289 148.57 207.542 148.748 208.034C148.926 208.526 148.672 209.068 148.18 209.246C144.891 210.437 140.801 211.034 135.96 211.034Z" fill="#0C923B"/>
<path d="M133.73 213.447C131.348 213.447 128.792 213.326 126.066 213.085C118.92 212.452 113.187 211.177 113.129 211.164C112.619 211.049 112.298 210.543 112.413 210.032C112.527 209.521 113.033 209.202 113.544 209.316C113.766 209.366 135.978 214.259 147.716 209.366C148.198 209.166 148.753 209.393 148.954 209.876C149.155 210.358 148.928 210.912 148.445 211.114C144.723 212.667 139.791 213.447 133.73 213.447Z" fill="#0C923B"/>
<path d="M141.219 213.353C142.315 213.353 143.204 212.464 143.204 211.368C143.204 210.272 142.315 209.383 141.219 209.383C140.123 209.383 139.234 210.272 139.234 211.368C139.234 212.464 140.123 213.353 141.219 213.353Z" fill="#0C923B"/>
<path d="M150.347 216.333C148.152 213.374 144.169 211.152 142.064 210.12C143.473 209.714 145.991 208.733 146.821 206.752C147.334 205.526 147.12 204.192 146.185 202.785C145.354 201.536 144.45 201.017 143.493 201.243C142.617 201.449 141.945 202.343 141.43 203.495C140.849 202.421 139.775 201.742 138.218 201.485C136.739 201.242 135.741 201.55 135.254 202.402C134.082 204.452 137.326 208.71 138.774 210.446C138.938 210.642 139.175 210.757 139.425 210.778C139.503 211.388 139.655 213.058 139.269 214.892C138.651 217.832 136.98 219.816 134.304 220.785C133.812 220.963 133.558 221.506 133.736 221.997C133.876 222.381 134.239 222.622 134.626 222.62C134.733 222.62 134.842 222.602 134.948 222.564C140.81 220.442 141.464 214.776 141.395 211.905C143.384 212.898 146.939 214.917 148.826 217.461C149.137 217.88 149.731 217.969 150.15 217.657C150.57 217.345 150.658 216.753 150.347 216.333ZM143.898 203.087C143.901 203.087 144.157 203.155 144.609 203.834C145.179 204.691 145.332 205.406 145.076 206.018C144.66 207.014 143.266 207.712 142.107 208.117C142.573 205.543 143.366 203.269 143.898 203.087ZM136.879 203.363C136.88 203.361 136.984 203.295 137.305 203.295C137.456 203.295 137.653 203.31 137.909 203.352C138.925 203.519 139.552 203.895 139.826 204.5C140.271 205.483 139.831 206.98 139.337 208.103C137.773 206.006 136.65 203.876 136.879 203.363Z" fill="#0C923B"/>
<path d="M133.791 239.26C133.231 238.571 132.438 237.994 131.409 237.528C130.38 237.061 129.069 236.688 127.476 236.407C126.133 236.173 125.079 235.968 124.311 235.795C123.543 235.622 122.926 235.38 122.46 235.07C121.993 234.76 121.742 234.339 121.708 233.808C121.671 233.227 121.941 232.724 122.521 232.294C123.1 231.866 123.847 231.621 124.761 231.562C125.65 231.505 126.363 231.607 126.902 231.869C127.439 232.132 127.916 232.498 128.331 232.966C128.84 233.529 129.284 233.946 129.669 234.219C130.053 234.492 130.503 234.611 131.023 234.577C131.739 234.531 132.279 234.309 132.644 233.914C133.009 233.518 133.172 233.03 133.135 232.449C133.1 231.918 132.883 231.387 132.482 230.855C132.082 230.324 131.517 229.852 130.79 229.44C130.062 229.029 129.168 228.721 128.106 228.517C127.646 228.429 127.158 228.373 126.65 228.339L126.537 226.606C126.474 225.628 125.63 224.888 124.652 224.951C123.675 225.015 122.934 225.859 122.998 226.836L123.107 228.512C122.058 228.695 121.131 228.997 120.335 229.425C119.191 230.039 118.346 230.817 117.8 231.757C117.254 232.698 117.014 233.675 117.08 234.688C117.154 235.824 117.543 236.759 118.248 237.495C118.953 238.231 119.868 238.801 120.992 239.205C122.116 239.609 123.562 239.97 125.332 240.289C126.899 240.56 128.033 240.876 128.733 241.239C129.432 241.602 129.811 242.228 129.869 243.118C129.907 243.698 129.616 244.235 128.997 244.728C128.378 245.22 127.562 245.501 126.549 245.567C125.303 245.648 124.302 245.49 123.551 245.093C122.8 244.696 122.135 244.063 121.558 243.196C121.268 242.744 120.972 242.396 120.672 242.156C120.371 241.916 119.955 241.812 119.424 241.847C118.819 241.887 118.331 242.116 117.962 242.537C117.593 242.958 117.426 243.446 117.462 244.003C117.517 244.843 117.88 245.659 118.552 246.451C119.224 247.245 120.227 247.877 121.559 248.349C122.417 248.651 123.378 248.832 124.436 248.891L124.526 250.265C124.59 251.242 125.434 251.983 126.411 251.919C127.389 251.855 128.129 251.011 128.065 250.034L127.978 248.689C129.152 248.501 130.187 248.204 131.076 247.793C132.369 247.194 133.324 246.376 133.938 245.337C134.552 244.298 134.814 243.082 134.723 241.686C134.661 240.757 134.35 239.949 133.791 239.26Z" fill="#0C923B"/>
<path d="M250.955 151.273L230.463 122.363C230.203 121.997 229.73 121.848 229.307 122L217.75 126.158L204.796 106.769C204.532 106.373 204.023 106.218 203.583 106.398L185.821 113.693L170.945 89.1335C170.689 88.7116 170.163 88.5385 169.708 88.726L151.825 96.0702C151.811 96.0762 151.798 96.0846 151.784 96.0918C151.731 96.1159 151.682 96.1435 151.635 96.176C151.616 96.1892 151.598 96.2048 151.58 96.2193C151.54 96.2517 151.503 96.2854 151.468 96.3227C151.459 96.3323 151.448 96.3395 151.438 96.3503L142.273 107.165L139.318 102.368C139.06 101.95 138.537 101.781 138.084 101.967L120.199 109.314C120.18 109.322 120.163 109.335 120.144 109.344C120.114 109.358 120.085 109.374 120.056 109.392C120.015 109.417 119.978 109.445 119.942 109.475C119.917 109.495 119.893 109.516 119.87 109.538C119.834 109.574 119.804 109.614 119.774 109.655C119.76 109.673 119.743 109.686 119.731 109.705L99.3158 141.986C99.2148 142.144 99.1619 142.329 99.1607 142.517L99.115 154.247C99.115 154.249 99.1162 154.252 99.1162 154.253C99.1162 154.271 99.1198 154.289 99.121 154.307C99.1234 154.36 99.1282 154.411 99.139 154.461C99.1439 154.482 99.1523 154.503 99.1583 154.523C99.1715 154.569 99.1847 154.613 99.204 154.657C99.2136 154.68 99.2268 154.7 99.2376 154.722C99.2593 154.761 99.2809 154.799 99.3074 154.835C99.3146 154.844 99.3182 154.855 99.3266 154.865C99.335 154.877 99.347 154.885 99.3566 154.896C99.3843 154.928 99.4143 154.96 99.4468 154.989C99.466 155.007 99.4853 155.023 99.5057 155.04C99.5406 155.068 99.5778 155.091 99.6163 155.114C99.6367 155.126 99.6572 155.139 99.6788 155.15C99.7233 155.171 99.7702 155.188 99.8171 155.203C99.8351 155.209 99.8531 155.217 99.8712 155.222C99.9385 155.239 100.007 155.249 100.079 155.253L232.214 160.199C232.226 160.199 232.239 160.2 232.251 160.2C232.251 160.2 232.251 160.2 232.252 160.2C232.333 160.2 232.412 160.187 232.49 160.168C232.513 160.162 232.533 160.154 232.556 160.148C232.581 160.14 232.608 160.135 232.632 160.126L250.517 152.78C250.799 152.664 251.013 152.425 251.099 152.132C251.184 151.838 251.131 151.523 250.955 151.273Z" fill="#0C923B"/>
<path d="M199.803 135.655C199.37 135.81 198.886 135.651 198.631 135.269L185.795 116.058L170.08 126.444C169.853 126.594 169.574 126.644 169.308 126.585C169.042 126.525 168.812 126.361 168.671 126.127L152.065 98.7114L129.929 124.833C129.721 125.078 129.406 125.207 129.089 125.184C128.769 125.16 128.479 124.983 128.311 124.71L120.566 112.135L101.163 142.814L101.122 153.287L230.259 158.121L211.382 131.489L199.803 135.655Z" fill="white"/>
</svg>
